<?xml version="1.0" encoding="utf-8"?>
<!-- Generator: Adobe Illustrator 26.0.3, SVG Export Plug-In . SVG Version: 6.00 Build 0)  -->
<svg version="1.0" id="katman_1" xmlns="http://www.w3.org/2000/svg" xmlns:xlink="http://www.w3.org/1999/xlink" x="0px" y="0px"
	 viewBox="0 0 600 450" style="enable-background:new 0 0 600 450;" xml:space="preserve">
<style type="text/css">
	.st0{fill:#EE762C;}
	.st1{fill:#FFFFFF;}
</style>
<g id="Layer_2_1_">
	<g>
		<path class="st0" d="M300.4,379.2l-68.6-68.6l53.7-200.5c1.7-6.6,7.3-10.4,14.4-10.4c6.6,0,11.8,4.3,13,10.4l55.6,200L300.4,379.2
			z M246.6,307.3l53.7,53.7l53.5-54.2l-53.5-193.6c0,0,0-0.5-0.9-0.5c-0.5,0-1.4,0-1.4,0.9L246.6,307.3z"/>
		<g>
			<path class="st1" d="M264.4,78.1h70.3v16.6l-23.4,24.1c-5.7,5.7-14.7,6.2-20.8,0.5l-26.5-25.6L264.4,78.1L264.4,78.1z"/>
			<path class="st0" d="M300.4,129.7c-5.2,0-10.4-1.7-14.7-5.7l-28.4-27.7V71.5h83.8v25.6l-25.1,26
				C311.7,127.6,306,129.7,300.4,129.7z M270.3,91.2l24.4,23.9c3.6,3.1,8.3,3.1,11.8-0.5l21.8-22.3v-7.8h-58V91.2z"/>
		</g>
		<path class="st0" d="M263.9,231.8c-1.7,0-3.1-0.5-4.3-1.7c-2.6-2.6-2.6-6.6-0.5-9.2l55.2-58.2c2.6-2.6,6.6-2.6,9.2-0.5
			c2.6,2.6,2.6,6.6,0.5,9.2l-55.4,58C267.5,230.8,265.6,231.8,263.9,231.8z"/>
		<path class="st0" d="M289,252.6c-1.7,0-3.6-0.5-4.7-1.7c-2.6-2.6-2.6-6.6,0-9.2l42.1-42.6c2.6-2.6,6.6-2.6,9.2,0s2.6,6.6,0,9.2
			l-42.1,42.6C292.5,252.1,290.9,252.6,289,252.6z"/>
		<path class="st0" d="M257.8,329.3c-1.7,0-3.6-0.5-4.7-1.7c-2.6-2.6-2.6-6.6,0-9.2l83.8-82.4c2.6-2.6,6.6-2.6,9.2,0s2.6,6.6,0,9.2
			l-83.3,82.4C261.3,328.8,259.6,329.3,257.8,329.3z"/>
		<path class="st0" d="M279.5,354.9c-1.7,0-3.6-0.5-4.7-1.7c-2.6-2.6-2.6-6.6,0-9.2l42.1-42.6c2.6-2.6,6.6-2.6,9.2,0s2.6,6.6,0,9.2
			L284,353.2C283.1,354.4,281.2,354.9,279.5,354.9z"/>
	</g>
</g>
</svg>
